<?xml version="1.0" encoding="utf-8"?>
<!-- Generator: Adobe Illustrator 22.0.1, SVG Export Plug-In . SVG Version: 6.00 Build 0)  -->
<svg version="1.1" id="Layer_1" xmlns="http://www.w3.org/2000/svg" xmlns:xlink="http://www.w3.org/1999/xlink" x="0px" y="0px"
	 viewBox="0 0 792 432" style="enable-background:new 0 0 792 432;" xml:space="preserve">
<style type="text/css">
	.st0{fill:#0097A9;}
	.st1{fill:#F2A900;}
	.st2{fill:#244C5A;}
	.st3{fill:#7A9A01;}
	.st4{fill:#E57344;enable-background:new    ;}
	.st5{fill:#512A44;}
	.st6{fill:#799900;}
</style>
<path class="st0" d="M139.8,266c15.3,2.5,29.9,4.5,45.3,2.5c15.3-2,28.5-7.8,42.1-12.9c-8.2,2.8-19.9,5.4-29,5.9
	c-14.2,0.7-28.5-0.5-44.8-1.7c-17.6-1.3-35-0.5-51.9,2.7l15.8,0.2C125,263.3,132.2,264.8,139.8,266z"/>
<path class="st1" d="M109.9,247.5c-17,3.4-35.9,10.9-50.3,13.5c-8.8,1.6-32.1,2.6-39.6,2.8c26.1,1.6,55.3,2.6,79.5-2.4
	c10.7-2.2,21.7-4,32.7-5.5c10.6-1.5,21.7-1.8,32.4-1.1c10.2,0.7,19.6,2.4,28.8,5.1c0,0-31.8-11.9-53.5-13.8
	C130.6,245.3,118.8,245.7,109.9,247.5z"/>
<path class="st2" d="M252.1,278.3c0,0,59.7-2,85.5-32.1c25.8-30.2,4.5-49.8,4.5-49.8s37.3,19.1,10.9,55.5
	C328.6,285.5,252.1,278.3,252.1,278.3z"/>
<path class="st2" d="M354.9,193.6c0,0,26.7,3.4,37.1-14.2C392,179.4,391.6,210.8,354.9,193.6z"/>
<path class="st0" d="M396,189.1c0,0,8.6,40.3,44.8,60c0,0-53.9-12.1-71-44.9C369.7,204.2,393.7,206.5,396,189.1z"/>
<path class="st3" d="M366.6,220.9c0,0,12.2,62.2-94.6,60.6C272,281.5,398.3,300.3,366.6,220.9z"/>
<path class="st4" d="M348,184.3c0,0,19,7.7,39.1-6.3s37.4-2.3,37.4-2.3s-17.5-18.7-39.3-5.1C363.4,184.2,359.1,183.2,348,184.3z"/>
<path class="st2" d="M401.2,181.5c0,0,21.1-9.7,37.4,14.8s43.8,37,63.7,36.7c0,0-36.6,5.9-56.5-14.7
	C425.9,197.7,423.5,183.3,401.2,181.5z"/>
<path class="st5" d="M401.2,186.4c0,0,13.1-3.3,31.8,24.9c18.8,28.2,34.1,30.2,34.1,30.2S419.5,232.9,401.2,186.4z"/>
<path class="st2" d="M413.2,219.1c0,0,17.1,27.2,44.2,36.8c27.1,9.6,59.3-11.5,59.3-11.5S456.2,266.8,413.2,219.1z"/>
<path class="st1" d="M295.4,292.2c0,0,43.1,0.3,83.7-8.7s109.5,15.3,109.5,15.3s-53-39.6-109.5-22.8
	C322.6,292.6,295.4,292.2,295.4,292.2z"/>
<path class="st0" d="M346.8,301.2c0,0,21.4-12.6,40.3-15.2c14.9-2.1,50.3,1.4,67.2,6.2C454.3,292.2,393,283.4,346.8,301.2z"/>
<path class="st1" d="M333.2,182.2c0,0,8.4,5.3,28.4-7.5c20-12.9,36-41.9,59.9-44c0,0-22.3-5.9-47.5,22.3
	C348.8,181.3,333.2,182.2,333.2,182.2z"/>
<path class="st0" d="M180.8,288.6c0,0,22-18.4,54.6-25.1c22.8-4.7,101-22,96.8-74.4c0,0,37.5,52.4-46.6,76.8
	C215.7,286.1,212.4,273.3,180.8,288.6z"/>
<path class="st0" d="M424.5,136.1c0,0-9.6,9.3,4.6,29.5s41.7,29,70.1,24.8C499.2,190.4,434.1,183.1,424.5,136.1z"/>
<path class="st1" d="M447.7,165.6c0,0,29.1,18.4,41-12.6C488.7,152.9,474.3,169.3,447.7,165.6z"/>
<path class="st0" d="M289.5,156.3c0,0,8.5,3,14.3-6.1s14.2-3.8,14.2-3.8s-9.5-9.1-16-0.1C295.5,155.2,293.7,154.9,289.5,156.3z"/>
<path class="st2" d="M281.5,141.7c0,0,3.8,14,16.2,8.2C297.7,149.9,288.7,150.6,281.5,141.7z"/>
<path class="st0" d="M310.8,164.1c0,0,5.8,2.1,9.8-4.2c4-6.2,9.7-2.6,9.7-2.6s-6.5-6.3-11-0.1C314.9,163.4,313.7,163.2,310.8,164.1z
	"/>
<path class="st2" d="M305.4,154.1c0,0,2.6,9.6,11.1,5.6C316.4,159.7,310.2,160.2,305.4,154.1z"/>
<path class="st0" d="M492.5,156.7c0,0,23.3,7,27.5,26.6c6,27.9,22.2,58,52.4,65.8c30.2,7.7,41.7,1.5,59.5-5.6s40,1.8,40,1.8
	s-22.2-16.2-48.4-6.6c-26.2,9.7-67.5,3.3-81.2-29.2C528.5,176.9,524.5,159.2,492.5,156.7z"/>
<path class="st0" d="M492.5,165.6c0,0,19.9,1.1,24.2,29c4.7,30.5,33.5,46.9,33.5,46.9s-37.3-6.2-43.2-38
	C501.2,172.1,492.5,165.6,492.5,165.6z"/>
<path class="st0" d="M460.2,275.8c0,0,51.8-20.7,114-6.9c62.2,13.8,101.7,1.1,101.7,1.1s-58.2,25.1-105.2,12.7
	C523.6,270.2,460.2,275.8,460.2,275.8z"/>
<path class="st3" d="M492.5,262.2c0,0,43.5-31.1,100.8,0C593.3,262.2,536.5,249.3,492.5,262.2z"/>
<path class="st0" d="M438.3,183.3c0,0,20.2,36.6,64,43.7c0,0-8.5-18.9-25-21.9C461,202.2,438.3,183.3,438.3,183.3z"/>
<path class="st4" d="M473,176c0,0,5.3,10.5,26.2,8.9c0,0-0.4-8.7-6.7-9.7C486.3,174.3,489.4,179.1,473,176z"/>
<path class="st0" d="M621.3,258.3c0,0,29-14.2,85.2-3.1c34.9,6.9,59.5,3.6,59.5,3.6s-18.2,16.3-65.7,7
	C669.7,259.9,621.3,258.3,621.3,258.3z"/>
<path class="st2" d="M596.8,267.4c0,0,38.6-9.8,75-1.5C671.9,265.9,633.6,277.4,596.8,267.4z"/>
<path class="st6" d="M364.8,208.9"/>
</svg>
