<?xml version="1.0" encoding="utf-8"?>
<!-- Generator: Adobe Illustrator 22.0.1, SVG Export Plug-In . SVG Version: 6.00 Build 0)  -->
<svg version="1.1" id="Layer_1" xmlns="http://www.w3.org/2000/svg" xmlns:xlink="http://www.w3.org/1999/xlink" x="0px" y="0px"
	 viewBox="0 0 792 432" style="enable-background:new 0 0 792 432;" xml:space="preserve">
<style type="text/css">
	.st0{fill:#0097A9;}
	.st1{fill:#244C5A;}
	.st2{fill:#512A44;}
	.st3{fill:#F2A900;}
	.st4{fill:#E57344;enable-background:new    ;}
	.st5{fill:#7A9A01;}
</style>
<path class="st0" d="M140.6,242.9c7.9,2.5,17.4,6,24.7,7.9l0.7,9c-11.2-1.7-17.6-2.8-26-4.9c-8.6-2.1-17-3.6-25.7-4.1
	c-9.5-0.6-18.1,1-27,3.2c-8.2,2.1-17.1,4.1-25.6,5.5C47.1,262,34,260.3,33,260.2c9.3-0.9,18.3-2.2,27-4.9c8.5-2.6,16.2-6.5,24.3-9.8
	c9.5-3.8,19.6-6,30.3-6.5C123.8,238.6,131.7,240.1,140.6,242.9z M224.2,259.9c-11,0.5-22-0.2-32.9-2.6c-8.8-1.9-16.8-3.9-26-6.5
	l0.7,9c5.6,0.8,13.1,1.8,17,2.2c10.7,1.1,16.3,1.2,27,0.7c10.5-0.5,20.3-2.4,30.4-4.3C235,258.9,229.6,259.7,224.2,259.9z"/>
<path class="st1" d="M66,266.8c0,0,23.9-0.5,44.9-5.6c21-5,46.4,6.5,46.4,6.5s-23.3-15.6-48.4-12.5C83.7,258.3,66,266.8,66,266.8z"
	/>
<path class="st1" d="M229.2,175.8c0,0,39.2,3.7,45.1-64.1c0,0,4.6,40.2-10.8,57.1C248.2,185.7,229.2,175.8,229.2,175.8z"/>
<path class="st2" d="M248.7,164.8c0,0-23,14.1-27.5-9.2c0,0,8.5-4.2,10.8,4.6C234.3,169,244.5,166.1,248.7,164.8z"/>
<path class="st3" d="M225.3,199.5c0,0,10.2-19.8,31.9-18.7s41.4,26.6,52.7,29c0,0-7.8,5.5-21.9-3.5s-29.1-11.4-39.3-4.4
	C238.5,209,225.3,199.5,225.3,199.5z"/>
<path class="st1" d="M253.2,205c0,0,15-8.1,34.3,5.5s39.3,23.7,57,18.2c17.6-5.5,26-26.1,26.2-34.5c0,0,5.2,41.9-24.9,56.4
	s-55.3-15.4-62.2-27.2C276.7,211.6,268.6,205.6,253.2,205z"/>
<path class="st4" d="M309.8,214.4c0,0,38.8,23.3,56.2-14.9c0,0-15.8-5.9-28.1,6.6C325.6,218.5,309.8,214.4,309.8,214.4z"/>
<path class="st3" d="M300.5,247.5c0,0,0.9,12.2-18.6,17.9c-19.4,5.7-38.5,13.4-41.5,21.4c0,0-1-19.8,22-28
	C285.4,250.7,300.5,247.5,300.5,247.5z"/>
<path class="st1" d="M304.3,251c0,0-2.2,14.7-28.9,18.8C275.5,269.8,309.9,268.1,304.3,251z"/>
<path class="st4" d="M350.4,250.4c0,0,17.4-9.7,31.4,1.8c13.9,11.5,9.1,29.7,23.4,33.2c0,0-6.2,3.6-15-2.4
	c-15-10.3-15.4-22-25.6-27.9C358.3,251.5,350.4,250.4,350.4,250.4z"/>
<path class="st0" d="M316.2,207.4c0,0,7.3,0.9,20.7-6c13.4-6.9,21.6-11.1,29.2-7.2c0,0-6-5.5-13.9-5.9s-41.7,13.6-54.1,9.6
	C298.1,197.9,306.6,205.9,316.2,207.4z"/>
<path class="st3" d="M393.1,224.4c0,0,9.5-15.1,26.7-8.4c17.2,6.8,37.5,7.3,45.9-3.9C465.7,212.1,445.2,253.6,393.1,224.4z"/>
<path class="st4" d="M436.3,237.7c0,0,21.4,2.4,39.9-32.2s82.3-45.3,91.6,12.6c0,0-12.4-20.6-43-19.3
	C494.1,200.1,480.2,254.7,436.3,237.7z"/>
<path class="st0" d="M480.2,238.5c0,0,11-5.7,32-24.8s55.6,8.9,55.6,8.9s-27.8-14.9-46.1,0.9C503.4,239.3,496.8,241.6,480.2,238.5z"
	/>
<path class="st3" d="M556.8,223.5c0,0-20.4-6.8-40.8,16.2c-16.5,18.6-6.4,44.7-24.7,59.9c0,0,19.6-6,27.1-33.5
	C524.7,242.9,542.2,226.2,556.8,223.5z"/>
<path class="st2" d="M433.5,244c0,0,14.3,7.3,15.9,24c1.5,16.7,12.4,35.5,32.7,38.9c0,0-10.6-4.7-14.1-29.2S451.6,245.5,433.5,244z"
	/>
<path class="st3" d="M401,196.2c0,0,6.2,15.9,29.3,15.9c23.2,0,42.8-42.5,31.8-61.9C462.2,150.2,456,227.5,401,196.2z"/>
<path class="st1" d="M401,182.4c0,0,2.2,13.6,15.4,16.2c0,0-3.9-1.2-4.8-8.1C410.3,180.4,403.7,179.5,401,182.4z"/>
<path class="st1" d="M156.5,216.1c0,0,5.2-5.3,11.6-1c6.4,4.3,14.6,6.3,19,2.5C187.2,217.6,175.1,232.7,156.5,216.1z"/>
<path class="st5" d="M173,225.4c0,0,8.5,2.9,19.1-9.6c10.6-12.4,37.6-11.1,36.2,13.3c0,0-3.2-9.5-15.8-11.7S189.3,236.2,173,225.4z"
	/>
<path class="st4" d="M190.8,229.6c0,0,5-1.4,15.2-7.2c10.2-5.9,21.9,8.6,21.9,8.6s-10-8.5-18.9-3.7S197.2,232.4,190.8,229.6z"/>
<path class="st3" d="M209.3,230.4c0,0,5.9-4,14.4,1.5c6.9,4.4,6,13.6,13.2,16.8c0,0-6.8-0.2-11.6-8.2
	C221.3,233.7,214.2,229.9,209.3,230.4z"/>
<path class="st3" d="M188.7,230.3c0,0-2.5,4.6-9.3,5.9c-6.9,1.3-14.2,5.5-14.9,11.6c0,0,1.5-3.4,11.6-5.7
	C186.1,239.9,188.7,235.7,188.7,230.3z"/>
<path class="st3" d="M162.3,205.3c0,0,1.1,7,10.5,9.1s21.2-13.5,18.5-22.4C191.3,192.1,181.9,223,162.3,205.3z"/>
<path class="st5" d="M163.5,199.7c0,0-0.3,5.7,4.8,8c0,0-1.5-0.8-1.3-3.7C167.5,199.7,164.9,198.8,163.5,199.7z"/>
<path class="st0" d="M374.6,167.6c0,0-8.4,8-16.1,3.6c-7.7-4.5-8.7-4.3-17.1,0.1c-8.4,4.4-12.8-3.3-12.8-3.3s4.9-1.9,8-6.5
	c3.1-4.5,9.8-9.2,17.6-6.4C361.9,158,374.6,167.6,374.6,167.6z"/>
<path class="st3" d="M330.5,143.1c0,0,13.3,12.5,31.7,4.1c18.5-8.4,18.6-40.1,18.6-40.1S372.1,158.6,330.5,143.1z"/>
<path class="st1" d="M330.3,129c0,0-1.8,11.8,16.5,14.2C346.8,143.2,340.8,129.2,330.3,129z"/>
<path class="st0" d="M713.2,250c-17.6,2.6-31.2,1.2-40.3-0.8c-6-1.3-11.7-4.2-17-7c-6-3.2-11.5-7.2-17.6-10c-3.7-1.7-7.7-3-11.8-3.5
	c-7.9-1-15.9,0.6-23.2,3.5c-3.9,1.5-7.6,3.5-11.4,5.4c6.2-2.1,12.3-4.2,19-3.7c6.2,0.5,12.5,2.1,18.3,4.4c2.5,1,5,2.3,7.4,3.6
	l5.7,3.7c17.7,12.5,31.7,15.6,45.5,13.2c8-1.4,15.8-3.6,23.7-5.3c8.1-1.8,16.7-3.1,24.9-2.5c7.9,0.6,15.1,3.6,22.7,5.6
	C751.1,253.7,735.8,246.6,713.2,250z"/>
<path class="st1" d="M657,261.7c-9.8-2.3-17.6-7.8-26-12.8c-8.7-5.2-17.7-10.2-28.2-10.3c-16.6-0.3-27.6,7.7-36.6,12.8
	c-19,10.8-21.3,11.5-35.4,12.9c19.6,0.7,27.2-4.7,36.5-7.2c11-3,22-6.6,33.6-6.2c7.8,0.3,15.7,2.3,23.1,4.6
	c6.7,2.1,12.9,5.5,19.6,7.6c24.5,7.8,45.3-2.2,45.3-2.2C677.1,264.5,666.3,263.9,657,261.7z"/>
<path class="st3" d="M667.4,240.1c-5.3-0.9-10.6-2.1-15.8-3.6c7.5,3.1,15.2,6.1,23,8c8.2,2,17.2,3,25.6,1.7
	c11.9-1.9,20.9-6.7,31-9.2c-8.2,0.5-24.8,3.1-34.9,4.1C686.6,242.1,677.2,241.8,667.4,240.1z"/>
<path class="st5" d="M360.8,179.7c0,0,35.2-29.7,77-7c0,0-18.4-7.7-33.4-0.4C389.3,179.6,377.1,182.4,360.8,179.7z"/>
</svg>
